<?xml version="1.0" encoding="iso-8859-1"?>
<!-- Generator: Adobe Illustrator 16.2.0, SVG Export Plug-In . SVG Version: 6.00 Build 0)  -->
<!DOCTYPE svg PUBLIC "-//W3C//DTD SVG 1.1//EN" "http://www.w3.org/Graphics/SVG/1.1/DTD/svg11.dtd">
<svg version="1.1" id="&#x421;&#x43B;&#x43E;&#x439;_1"
	 xmlns="http://www.w3.org/2000/svg" xmlns:xlink="http://www.w3.org/1999/xlink" x="0px" y="0px" width="119.995px"
	 height="28.851px" viewBox="0 0 119.995 28.851" style="enable-background:new 0 0 119.995 28.851;" xml:space="preserve">
<path d="M40.376,12.017H29.063v5.196h11.313V12.017z M0,28.167h5.642V1.058H0V28.167z M21.112,3.974L17.13,0L6.252,10.838
	l3.218,3.214l-3.218,3.231l11.412,11.375l3.996-3.969L10.982,14.052L21.112,3.974z M22.284,28.167h5.66V1.058h-5.66V28.167z
	 M29.063,6.248h12.271V1.059H29.063V6.248z M29.063,28.147h12.271v-5.166H29.063V28.147z M62.45,24.483L49.727,2.852l-0.819,0.493
	V1.058h-5.63v27.109h5.63V5.196l12.613,21.412l0.929-0.535v2.094h5.646V1.058H62.45V24.483z M69.884,6.248h15.338L71.39,20
	l3.002,2.982h-4.508v5.185h21.53v-5.185H76.308L90.003,9.333l-3.11-3.086h4.521v-5.19h-21.53V6.248z M105.788,0.523
	c-7.86,0-14.219,6.34-14.219,14.167c0,7.818,6.359,14.161,14.219,14.161c7.838,0,14.208-6.343,14.208-14.161
	C119.995,6.863,113.626,0.523,105.788,0.523 M105.788,23.351c-4.811,0-8.708-3.88-8.708-8.665c0-4.782,3.897-8.668,8.708-8.668
	c4.806,0,8.689,3.886,8.689,8.668C114.477,19.47,110.594,23.351,105.788,23.351"/>
</svg>
